# xmcd CD database file
#
# Track frame offsets:
#	150
#	12760
#	28487
#	39907
#	57457
#	70150
#	83470
#	99422
#	112512
#	128935
#
# Disc length: 1894 seconds
#
# Revision: 3
# Processed by: cddbd v1.5.2PL0 Copyright (c) Steve Scherf et al.
# Submitted via: CDex 1.79
#
DISCID=7307640a
DTITLE=Keith Palmer - Keith Palmer
DYEAR=1991
DGENRE=Country
TTITLE0=Memory Lane
TTITLE1=Forgotten But Not Gone
TTITLE2=If You Want To Find Love
TTITLE3=That`s Enough To Keep Me Hangin` On
TTITLE4=My Arms Tonight
TTITLE5=Don't Throw Me In The Briarpatch
TTITLE6=She Left Me Yesterday
TTITLE7=Livin On What`s Left Of Your Love
TTITLE8=When I Close My Eyes
TTITLE9=I Picked A San Antonio Rose
EXTD=33 YEAR: 1991
EXTT0=
EXTT1=
EXTT2=
EXTT3=
EXTT4=
EXTT5=
EXTT6=
EXTT7=
EXTT8=
EXTT9=
PLAYORDER=
